<?xml version="1.0" encoding="utf-8"?>
<!-- Generator: Adobe Illustrator 22.1.0, SVG Export Plug-In . SVG Version: 6.00 Build 0)  -->
<svg version="1.1" id="Layer_1" xmlns="http://www.w3.org/2000/svg" xmlns:xlink="http://www.w3.org/1999/xlink" x="0px" y="0px"
	 viewBox="0 0 1023 221" style="enable-background:new 0 0 1023 221;" xml:space="preserve">
<style type="text/css">
	.st0{fill:#FFFFFF;}
</style>
<g>
	<path id="XMLID_14_" class="st0" d="M830.2,18.7v143.5h-28.5V18.7H830.2z"/>
	<path id="XMLID_13_" class="st0" d="M174.4,41.5v37.2h50.4v22h-50.4v38.6h56.5v23h-85V18.7h85v22.8H174.4z"/>
	<path id="XMLID_12_" class="st0" d="M271.9,18.7L310,132.3l38.3-113.6h30.5l-50.4,143.5h-36.5L241.4,18.7H271.9z"/>
	<path id="XMLID_3_" class="st0" d="M422.6,140.3h62.2L463.9,162l-69.8,0.3V18.7h28.5L422.6,140.3L422.6,140.3z"/>
	<path id="XMLID_2_" class="st0" d="M590.4,26c10.8,6.2,19.4,14.9,25.6,26.1c6.3,11.2,9.4,23.8,9.4,37.9s-3.1,26.8-9.4,38
		c-6.3,11.2-14.8,20-25.6,26.2s-22.9,9.3-36.2,9.3s-25.4-3.1-36.2-9.3s-19.4-15-25.6-26.2c-6.3-11.2-9.4-23.9-9.4-38
		s3.1-26.7,9.4-37.9C498.6,41,507.1,32.3,518,26c10.8-6.2,22.9-9.3,36.2-9.3S579.6,19.8,590.4,26z M532.2,48.8
		c-6.3,3.8-11.3,9.2-14.8,16.4c-3.6,7.1-5.3,15.4-5.3,24.9s1.8,17.8,5.3,24.9c3.6,7.1,8.5,12.6,14.8,16.4s13.7,5.7,22,5.7
		s15.7-1.9,22-5.7c6.3-3.8,11.3-9.2,14.8-16.4c3.6-7.1,5.3-15.4,5.3-24.9s-1.8-17.8-5.3-24.9c-3.6-7.1-8.5-12.6-14.8-16.4
		c-6.3-3.8-13.7-5.7-22-5.7C545.8,43.1,538.5,45,532.2,48.8z"/>
	<path id="XMLID_1_" class="st0" d="M756,30.2c11.4,8.6,18.8,20.2,22,34.9h-29.9c-2.8-6.5-7.3-11.7-13.4-15.5
		c-6.1-3.9-13.4-5.8-21.7-5.8c-8.2,0-15.5,1.9-21.8,5.7s-11.2,9.2-14.7,16.3c-3.5,7-5.2,15.3-5.2,24.8c0,15,4,26.8,12,35.2
		s18.9,12.6,32.8,12.6c10.2,0,19-3,26.3-9.1s12.1-14.6,14.2-25.4h-48.2V83.1h72v27.6c-2,9.5-6,18.2-11.8,26.2
		c-5.9,8-13.5,14.4-23,19.2s-20.4,7.2-32.6,7.2c-14,0-26.3-3.1-37-9.2c-10.7-6.2-19-14.8-24.8-25.8c-5.9-11-8.8-23.7-8.8-37.9
		s2.9-26.9,8.8-37.9c5.9-11,14.1-19.7,24.7-25.9c10.6-6.2,22.9-9.3,36.9-9.3C730.1,17.3,744.5,21.6,756,30.2z"/>
	<g>
		<path class="st0" d="M75.4,6.5L75.4,6.5c-0.4-0.1-0.8-0.2-1.2-0.3C74.6,6.3,75,6.4,75.4,6.5z"/>
		<path class="st0" d="M77.8,7.1L1.9,80V4.3H54c2.9,0,5.7,0.1,8.4,0.3c0.9,0.1,1.8,0.1,2.7,0.2c0.7,0.1,1.4,0.1,2.1,0.2
			c0.6,0.1,1.3,0.2,1.9,0.3c0.5,0.1,1.1,0.1,1.6,0.2c0.3,0,0.7,0.1,1,0.2c0.5,0.1,1.1,0.2,1.6,0.3c0.3,0,0.5,0.1,0.8,0.2
			c0.4,0.1,0.8,0.2,1.2,0.3C76.2,6.7,77,6.9,77.8,7.1z"/>
		<polygon class="st0" points="79.5,57.3 44.2,91.2 38.3,96.9 1.9,131.8 1.9,91.3 58.4,37.1 		"/>
		<path class="st0" d="M95.6,152c-0.2,0.1-0.3,0.2-0.5,0.3c-11.5,6.6-25.3,10-41.2,10h-52v-19.1l42.2-40.6L95.6,152z"/>
		<path class="st0" d="M128.6,104.4c-1.5,7.2-3.8,13.8-7,20c-1.1,2.2-2.4,4.3-3.7,6.3c-0.2,0.2-0.3,0.5-0.4,0.7
			c-0.6,0.9-1.3,1.9-1.9,2.7c-0.1,0.1-0.2,0.3-0.3,0.4c-3.6,4.8-7.8,9.1-12.6,12.8L50.2,96.9L85.4,63L128.6,104.4z"/>
		<path class="st0" d="M130.7,83L130.7,83c0,1,0,2,0,2.9c0,0.7,0,1.4-0.1,2.1c0,0.1,0,0.2,0,0.3c0,0.4,0,0.8-0.1,1.2
			c0,0.5-0.1,0.9-0.1,1.4c-0.1,0.9-0.1,1.8-0.2,2.7c0,0.3-0.1,0.6-0.1,0.8L91.4,57.3l-5.9-5.7L64.4,31.3L86.7,10
			c2,0.8,4,1.7,5.9,2.6c0.2,0.1,0.4,0.2,0.5,0.3c0.7,0.4,1.4,0.7,2.1,1.1c11.5,6.5,20.3,15.7,26.4,27.5c0.4,0.7,0.7,1.5,1.1,2.2
			c0.4,0.8,0.7,1.5,1,2.3c0.7,1.5,1.3,3.1,1.9,4.7C129,60.4,130.7,71.2,130.7,83z"/>
		<path class="st0" d="M122.7,43.8c-0.4-0.8-0.7-1.5-1.1-2.2c-6.1-11.9-14.9-21-26.4-27.5c-0.7-0.4-1.4-0.8-2.1-1.1
			c0.7,0.3,1.4,0.7,2.1,1.1c11.6,6.5,20.3,15.6,26.4,27.5C122,42.3,122.4,43,122.7,43.8z"/>
	</g>
	<path class="st0" d="M907.7,113.2"/>
	<g>
		<g>
			<g>
				<polygon class="st0" points="845.4,18.7 978.3,220.4 1012,220.4 879.1,18.7 				"/>
			</g>
			<g>
				<polygon class="st0" points="844.4,162.2 878.1,162.2 925.9,89.7 909,64.1 				"/>
			</g>
			<g>
				<polygon class="st0" points="938.9,18.7 911.4,60.5 928.6,85.6 972.6,18.7 				"/>
			</g>
		</g>
	</g>
</g>
</svg>
